<?xml version="1.0" encoding="utf-8" standalone="no"?>
<!DOCTYPE svg PUBLIC "-//W3C//DTD SVG 1.1//EN"
  "http://www.w3.org/Graphics/SVG/1.1/DTD/svg11.dtd">
<svg xmlns:xlink="http://www.w3.org/1999/xlink" width="648pt" height="244.8pt" viewBox="0 0 648 244.8" xmlns="http://www.w3.org/2000/svg" version="1.1">
 <metadata>
  <rdf:RDF xmlns:dc="http://purl.org/dc/elements/1.1/" xmlns:cc="http://creativecommons.org/ns#" xmlns:rdf="http://www.w3.org/1999/02/22-rdf-syntax-ns#">
   <cc:Work>
    <dc:type rdf:resource="http://purl.org/dc/dcmitype/StillImage"/>
    <dc:date>2026-07-13T08:30:09.768882</dc:date>
    <dc:format>image/svg+xml</dc:format>
    <dc:creator>
     <cc:Agent>
      <dc:title>Matplotlib v3.11.0, https://matplotlib.org/</dc:title>
     </cc:Agent>
    </dc:creator>
   </cc:Work>
  </rdf:RDF>
 </metadata>
 <defs>
  <style type="text/css">*{stroke-linejoin: round; stroke-linecap: butt}</style>
 </defs>
 <g id="figure_1">
  <g id="patch_1">
   <path d="M 0 244.8 
L 648 244.8 
L 648 0 
L 0 0 
L 0 244.8 
z
" style="fill: none; opacity: 0"/>
  </g>
  <g id="axes_1">
   <g id="patch_2">
    <path d="M 94.968 75.168 
L 174.312 100.224 
L 205.632 112.752 
L 178.488 123.192 
L 174.312 115.884 
L 165.96 125.28 
L 109.584 137.808 
L 80.352 133.632 
L 105.408 116.928 
L 76.176 110.664 
L 101.232 96.048 
z
" clip-path="url(#p5a65adb07d)" style="fill: #ffffff"/>
   </g>
   <g id="patch_3">
    <path d="M 153.432 115.092 
C 155.436935 115.092 157.360024 114.295431 158.777727 112.877727 
C 160.195431 111.460024 160.992 109.536935 160.992 107.532 
C 160.992 105.527065 160.195431 103.603976 158.777727 102.186273 
C 157.360024 100.768569 155.436935 99.972 153.432 99.972 
C 151.427065 99.972 149.503976 100.768569 148.086273 102.186273 
C 146.668569 103.603976 145.872 105.527065 145.872 107.532 
C 145.872 109.536935 146.668569 111.460024 148.086273 112.877727 
C 149.503976 114.295431 151.427065 115.092 153.432 115.092 
z
" clip-path="url(#p64461130cf)" style="fill: #c8ff37"/>
   </g>
   <g id="patch_4">
    <path d="M 147.168 105.66 
C 148.886516 105.66 150.534878 104.977226 151.750052 103.762052 
C 152.965226 102.546878 153.648 100.898516 153.648 99.18 
C 153.648 97.461484 152.965226 95.813122 151.750052 94.597948 
C 150.534878 93.382774 148.886516 92.7 147.168 92.7 
C 145.449484 92.7 143.801122 93.382774 142.585948 94.597948 
C 141.370774 95.813122 140.688 97.461484 140.688 99.18 
C 140.688 100.898516 141.370774 102.546878 142.585948 103.762052 
C 143.801122 104.977226 145.449484 105.66 147.168 105.66 
z
" clip-path="url(#p64461130cf)" style="fill: #ffffff"/>
   </g>
   <g id="patch_5">
    <path d="M 158.652 112.932 
C 159.530353 112.932 160.372849 112.583027 160.993938 111.961938 
C 161.615027 111.340849 161.964 110.498353 161.964 109.62 
C 161.964 108.741647 161.615027 107.899151 160.993938 107.278062 
C 160.372849 106.656973 159.530353 106.308 158.652 106.308 
C 157.773647 106.308 156.931151 106.656973 156.310062 107.278062 
C 155.688973 107.899151 155.34 108.741647 155.34 109.62 
C 155.34 110.498353 155.688973 111.340849 156.310062 111.961938 
C 156.931151 112.583027 157.773647 112.932 158.652 112.932 
z
" clip-path="url(#p64461130cf)" style="fill: #0b0f14"/>
   </g>
   <g id="patch_6">
    <path d="M 230.419648 85.4496 
L 259.162048 85.4496 
Q 271.992448 85.4496 277.42508 91.152 
Q 282.875703 96.84 280.251176 107.3664 
Q 277.612289 117.9504 269.325311 123.6384 
Q 261.052733 129.3264 248.222333 129.3264 
L 236.803133 129.3264 
L 230.9904 152.64 
L 213.6672 152.64 
L 230.419648 85.4496 
z
M 244.612086 98.0064 
L 239.933895 116.7696 
L 249.509895 116.7696 
Q 254.549895 116.7696 257.91065 114.3216 
Q 261.271405 111.8736 262.395176 107.3664 
Q 263.515357 102.8736 261.371722 100.44 
Q 259.228086 98.0064 254.188086 98.0064 
L 244.612086 98.0064 
z
M 306.254759 129.96 
Q 301.214759 129.96 298.238711 131.6736 
Q 295.280652 133.3728 294.447698 136.7136 
Q 293.686549 139.7664 295.29692 141.5088 
Q 296.925281 143.2368 300.568481 143.2368 
Q 305.104481 143.2368 309.026294 139.9824 
Q 312.951698 136.7136 314.175998 131.8032 
L 314.635559 129.96 
L 306.254759 129.96 
z
M 332.393876 123.8832 
L 325.224 152.64 
L 308.9808 152.64 
L 310.844178 145.1664 
Q 306.458865 149.76 301.873877 151.8624 
Q 297.306881 153.9504 291.503681 153.9504 
Q 283.670081 153.9504 279.926613 149.3856 
Q 276.186736 144.8064 278.003439 137.52 
Q 280.215079 128.6496 287.336701 124.5168 
Q 294.476314 120.3696 307.522714 120.3696 
L 317.026714 120.3696 
L 317.339073 119.1168 
Q 318.294098 115.2864 315.711708 113.5152 
Q 313.147308 111.7296 306.753708 111.7296 
Q 301.584108 111.7296 296.861605 112.7664 
Q 292.153502 113.8032 287.806095 115.8768 
L 290.868641 103.5936 
Q 296.368589 102.3264 301.742954 101.6784 
Q 307.131718 101.0304 312.344518 101.0304 
Q 325.981318 101.0304 330.690128 106.4016 
Q 335.413337 111.7728 332.393876 123.8832 
z
M 358.130304 145.3536 
L 351.53488 171.8064 
L 335.43568 171.8064 
L 352.780531 102.24 
L 368.879731 102.24 
L 367.041486 109.6128 
Q 371.480925 105.2064 376.047922 103.1184 
Q 380.614918 101.0304 385.885318 101.0304 
Q 395.202118 101.0304 399.332692 108.432 
Q 403.477666 115.8336 400.573095 127.4832 
Q 397.668523 139.1328 389.829107 146.5488 
Q 382.007681 153.9504 372.690881 153.9504 
Q 367.420481 153.9504 363.894677 151.8624 
Q 360.372465 149.76 358.130304 145.3536 
z
M 376.979576 112.7232 
Q 371.809976 112.7232 368.082931 116.5248 
Q 364.370285 120.3264 362.585895 127.4832 
Q 360.801504 134.64 362.618459 138.4416 
Q 364.449813 142.2432 369.619413 142.2432 
Q 374.789013 142.2432 378.451278 138.4704 
Q 382.131533 134.6832 383.926695 127.4832 
Q 385.721856 120.2832 383.926521 116.5104 
Q 382.149176 112.7232 376.979576 112.7232 
z
M 440.15226 112.5504 
Q 434.79546 112.5504 431.028844 116.3952 
Q 427.262227 120.24 425.456295 127.4832 
Q 423.650362 134.7264 425.496155 138.5856 
Q 427.345539 142.4304 432.702339 142.4304 
Q 437.972739 142.4304 441.710555 138.5856 
Q 445.466362 134.7264 447.272295 127.4832 
Q 449.078227 120.24 447.243244 116.3952 
Q 445.42266 112.5504 440.15226 112.5504 
z
M 443.024518 101.0304 
Q 456.027718 101.0304 461.590841 108.0576 
Q 467.157553 115.0704 464.062695 127.4832 
Q 460.964246 139.9104 451.896968 146.9376 
Q 442.833281 153.9504 429.830081 153.9504 
Q 416.783681 153.9504 411.173768 146.9376 
Q 405.567446 139.9104 408.665895 127.4832 
Q 411.760753 115.0704 420.867641 108.0576 
Q 429.978118 101.0304 443.024518 101.0304 
z
" clip-path="url(#p5a65adb07d)" style="fill: #ffffff"/>
   </g>
   <g id="patch_7">
    <path d="M 467.501316 85.0752 
L 489.965316 153.9648 
L 510.931716 98.5536 
L 531.898116 153.9648 
L 551.366916 92.5632 
" clip-path="url(#p5a65adb07d)" style="fill: none; stroke: #c8ff37; stroke-width: 20.2176; stroke-linejoin: miter"/>
   </g>
   <g id="patch_8">
    <path d="M 558.156522 71.149827 
L 537.160971 92.772111 
L 562.857019 100.919638 
z
" clip-path="url(#p5a65adb07d)" style="fill: #c8ff37"/>
   </g>
   <g id="patch_9">
    <path d="M 516.922116 82.08 
L 526.656516 82.08 
L 526.656516 61.1136 
L 516.922116 61.1136 
z
" clip-path="url(#p5a65adb07d)" style="fill: #c8ff37"/>
   </g>
   <g id="patch_10">
    <path d="M 520.366596 61.1136 
L 523.212036 61.1136 
L 523.212036 51.3792 
L 520.366596 51.3792 
z
" clip-path="url(#p5a65adb07d)" style="fill: #c8ff37"/>
   </g>
   <g id="patch_11">
    <path d="M 520.366596 91.0656 
L 523.212036 91.0656 
L 523.212036 82.08 
L 520.366596 82.08 
z
" clip-path="url(#p5a65adb07d)" style="fill: #c8ff37"/>
   </g>
  </g>
 </g>
 <defs>
  <clipPath id="p5a65adb07d">
   <rect x="0" y="0" width="648" height="244.8"/>
  </clipPath>
  <clipPath id="p64461130cf">
   <path d="M 94.968 75.168 
L 174.312 100.224 
L 205.632 112.752 
L 178.488 123.192 
L 174.312 115.884 
L 165.96 125.28 
L 109.584 137.808 
L 80.352 133.632 
L 105.408 116.928 
L 76.176 110.664 
L 101.232 96.048 
z
"/>
  </clipPath>
 </defs>
</svg>
