<svg xmlns="http://www.w3.org/2000/svg" viewBox="-100 -100 770.1240923857771 332"><g transform="translate(0,6) scale(1.395)"><g transform="translate(0,-8)"><g><path fill="#FFFFFF" d="M14,62 C10,40 30,16 56,16 C70,16 80,24 84,34 L97,44 C99,45.5 99,48 96.5,49 L82,54 C80,63 70,70 56,70 L44,70 L50,62 L36,64 L42,56 L26,60 L32,52 Z"/><circle cx="58" cy="38" r="9.5" fill="#C8FF37"/><circle cx="61" cy="36" r="5" fill="#0B0F14"/><path fill="#0B0F14" d="M82,54 L96.5,49 C99,48 99,45.5 97,44 L84,34 C86,40 86,48 82,54 Z" opacity="0.18"/></g></g></g><g transform="translate(157.53488372093022,18)"><g><path fill="#FFFFFF" d="M0.00,0.00 L31.19,0.00 L34.59,0.10 L40.90,0.87 L46.57,2.42 L51.59,4.74 L53.86,6.19 L55.95,7.81 L59.54,11.55 L62.34,15.95 L64.35,21.01 L65.05,23.78 L65.53,26.57 L65.68,31.65 L64.75,36.06 L62.76,39.81 L61.35,41.44 L59.70,42.88 L55.66,45.20 L50.65,46.74 L44.67,47.51 L41.31,47.61 L28.92,47.61 L34.29,72.91 L15.50,72.91 L0.00,0.00 Z M21.69,13.62 L26.02,33.98 L36.41,33.98 L38.95,33.82 L42.90,32.49 L44.30,31.33 L44.85,30.63 L45.63,29.02 L45.98,26.09 L45.68,23.78 L45.00,21.48 L42.71,17.73 L41.10,16.27 L39.20,15.11 L34.70,13.79 L32.08,13.62 L21.69,13.62 Z M104.59,48.30 L102.05,48.41 L98.13,49.34 L96.75,50.16 L95.77,51.19 L94.98,53.92 L95.17,55.62 L95.64,57.19 L97.30,59.79 L98.49,60.83 L99.89,61.65 L103.18,62.59 L105.08,62.70 L107.40,62.48 L110.33,61.32 L111.93,60.00 L112.62,59.17 L113.22,58.26 L114.06,56.26 L114.44,52.85 L114.11,50.30 L113.69,48.30 L104.59,48.30 Z M129.91,41.70 L136.54,72.91 L118.92,72.91 L117.19,64.80 L115.88,67.12 L112.69,70.75 L110.82,72.06 L108.71,73.05 L103.61,74.19 L100.61,74.33 L98.52,74.25 L94.54,73.63 L90.83,72.39 L87.38,70.54 L85.76,69.38 L84.25,68.09 L81.65,65.24 L79.65,62.02 L78.22,58.43 L77.73,56.50 L77.34,54.17 L77.28,50.00 L78.18,46.48 L80.04,43.59 L81.34,42.39 L82.89,41.34 L86.78,39.65 L91.74,38.52 L97.76,37.96 L101.16,37.89 L111.48,37.89 L111.19,36.53 L110.57,34.59 L108.28,31.55 L106.61,30.45 L104.57,29.61 L99.26,28.64 L96.00,28.52 L93.26,28.59 L88.15,29.15 L85.78,29.64 L83.55,30.27 L79.41,31.96 L77.52,33.02 L74.68,19.69 L80.06,18.48 L85.52,17.61 L91.08,17.08 L96.70,16.91 L100.29,17.00 L106.82,17.73 L112.47,19.18 L117.24,21.37 L119.30,22.73 L121.18,24.31 L124.46,28.13 L127.11,32.88 L129.13,38.53 L129.91,41.70 Z M168.60,65.00 L174.70,93.70 L157.23,93.70 L141.19,18.22 L158.65,18.22 L160.35,26.22 L161.74,23.99 L165.00,20.46 L166.87,19.17 L168.94,18.18 L173.75,17.05 L176.50,16.91 L179.00,17.03 L183.81,18.04 L188.39,20.04 L192.72,23.06 L194.80,24.94 L196.77,27.02 L200.18,31.61 L202.90,36.78 L204.94,42.52 L205.69,45.61 L206.25,48.70 L206.66,54.44 L206.13,59.62 L204.67,64.21 L203.59,66.30 L202.31,68.18 L199.26,71.19 L195.54,73.20 L191.15,74.20 L188.71,74.33 L185.90,74.19 L180.60,73.05 L178.11,72.06 L175.69,70.77 L170.93,67.23 L168.60,65.00 Z M172.70,29.59 L171.35,29.66 L168.98,30.17 L167.04,31.21 L165.54,32.75 L164.95,33.72 L164.48,34.81 L163.89,37.32 L163.89,41.95 L164.48,45.61 L165.44,49.26 L168.20,55.21 L170.00,57.50 L171.00,58.47 L173.16,60.01 L175.54,61.04 L178.13,61.56 L179.51,61.62 L180.85,61.56 L183.22,61.05 L185.14,60.03 L186.62,58.49 L187.20,57.53 L187.66,56.45 L188.24,53.93 L188.23,49.28 L187.63,45.61 L186.67,41.94 L183.92,35.98 L182.13,33.70 L181.15,32.74 L179.01,31.20 L176.65,30.17 L174.07,29.66 L172.70,29.59 Z M241.16,29.41 L239.76,29.47 L237.31,29.99 L235.32,31.04 L233.78,32.60 L233.18,33.58 L232.70,34.68 L232.10,37.23 L232.10,41.91 L232.69,45.61 L233.67,49.31 L236.48,55.33 L238.30,57.66 L239.31,58.63 L241.52,60.20 L243.95,61.24 L246.62,61.76 L248.05,61.83 L249.42,61.76 L251.83,61.24 L253.79,60.20 L255.31,58.63 L255.90,57.66 L256.37,56.55 L256.97,54.00 L256.96,49.31 L256.37,45.61 L255.39,41.91 L252.60,35.89 L250.78,33.58 L249.77,32.60 L247.60,31.04 L245.19,29.99 L242.56,29.47 L241.16,29.41 Z M238.50,16.91 L241.96,17.03 L248.44,17.98 L254.36,19.88 L259.71,22.74 L262.17,24.53 L264.45,26.53 L268.39,31.06 L271.50,36.33 L273.76,42.33 L274.59,45.61 L275.16,48.89 L275.44,54.90 L274.58,60.18 L272.57,64.72 L271.13,66.72 L269.43,68.50 L265.30,71.36 L260.19,73.26 L254.11,74.21 L250.71,74.33 L247.24,74.21 L240.73,73.26 L234.79,71.36 L229.42,68.50 L226.95,66.72 L224.65,64.72 L220.69,60.18 L217.57,54.90 L215.30,48.89 L214.48,45.61 L213.90,42.33 L213.63,36.33 L214.50,31.06 L216.53,26.53 L217.98,24.53 L219.69,22.74 L223.85,19.88 L228.98,17.98 L235.08,17.03 L238.50,16.91 Z"/><g transform="translate(281.47979616484685,-3.6221875000000097) scale(0.993)"><g stroke="#C8FF37" stroke-width="15.0" fill="none" stroke-linecap="round" stroke-linejoin="round"><path d="M8,10 L34,90 L58,26 L82,90 L112,14"/></g><g><rect x="103" y="2" width="17" height="30" rx="3.5" fill="#C8FF37"/><rect x="109.5" y="-12" width="4" height="14" rx="2" fill="#C8FF37"/><rect x="109.5" y="32" width="4" height="12" rx="2" fill="#C8FF37"/></g></g></g></g></svg>